<?xml version="1.0" encoding="UTF-8" standalone="no"?>
<svg xmlns="http://www.w3.org/2000/svg" width="512" height="512" viewBox="0 0 512 512">
  <defs>
    <linearGradient id="gradient" x1="0%" y1="0%" x2="100%" y2="100%">
      <stop offset="0%" style="stop-color:#4A6FE3;stop-opacity:1" />
      <stop offset="100%" style="stop-color:#7957D5;stop-opacity:1" />
    </linearGradient>
  </defs>
  <rect width="512" height="512" rx="128" ry="128" fill="url(#gradient)"/>
  <g fill="#FFFFFF">
    <!-- Speech bubble 1 -->
    <path d="M160,160 C130,160 110,180 110,210 L110,260 C110,290 130,310 160,310 L180,310 L180,340 L210,310 L260,310 C290,310 310,290 310,260 L310,210 C310,180 290,160 260,160 Z" />
    <!-- Speech bubble 2 (smaller) -->
    <path d="M270,210 C250,210 235,225 235,245 L235,280 C235,300 250,315 270,315 L275,315 L275,335 L295,315 L330,315 C350,315 365,300 365,280 L365,245 C365,225 350,210 330,210 Z" />
    <!-- Language text -->
    <path d="M160,210 L170,210 L180,250 L150,250 Z" />
    <path d="M250,250 L230,270 L270,270 Z" />
  </g>
</svg>