<?xml version="1.0" encoding="UTF-8" standalone="no"?>
<svg xmlns="http://www.w3.org/2000/svg" width="512" height="512" viewBox="0 0 512 512">
  <defs>
    <linearGradient id="gradient" x1="0%" y1="0%" x2="100%" y2="100%">
      <stop offset="0%" style="stop-color:#4A6FE3;stop-opacity:1" />
      <stop offset="100%" style="stop-color:#7957D5;stop-opacity:1" />
    </linearGradient>
  </defs>
  <rect width="512" height="512" rx="128" ry="128" fill="url(#gradient)"/>
  
  <!-- Bootstrap Translate Icon (centered) -->
  <g transform="translate(72, 72) scale(1.4)" fill="#FFFFFF">
    <path d="M11.534 7h3.932a.25.25 0 0 1 .192.41l-1.966 2.36a.25.25 0 0 1-.384 0l-1.966-2.36a.25.25 0 0 1 .192-.41zm-11 2h3.932a.25.25 0 0 0 .192-.41L2.692 6.23a.25.25 0 0 0-.384 0L.342 8.59A.25.25 0 0 0 .534 9z"/>
    <path fill-rule="evenodd" d="M8 3c-1.552 0-2.94.707-3.857 1.818a.5.5 0 1 1-.771-.636A6.002 6.002 0 0 1 13.917 7H12.9A5.002 5.002 0 0 0 8 3zM3.1 9a5.002 5.002 0 0 0 8.757 2.182.5.5 0 1 1 .771.636A6.002 6.002 0 0 1 2.083 9H3.1z"/>
    <path d="M14 0a.5.5 0 0 1 .5.5v2a.5.5 0 0 1-.5.5h-2a.5.5 0 0 1 0-1h1.5V.5a.5.5 0 0 1 .5-.5zM2 5a.5.5 0 0 1 .5-.5h2a.5.5 0 0 1 0 1H3v1.5a.5.5 0 0 1-1 0v-2z"/>
    <path d="M14 6a.5.5 0 0 1 .5.5v2a.5.5 0 0 1-.5.5h-2a.5.5 0 0 1 0-1h1.5V6.5a.5.5 0 0 1 .5-.5zM2 11a.5.5 0 0 1 .5-.5h2a.5.5 0 0 1 0 1H3v1.5a.5.5 0 0 1-1 0v-2z"/>
  </g>
  
  <!-- LanguagePal text -->
  <text x="256" y="380" font-family="Arial, sans-serif" font-size="36" font-weight="bold" fill="#FFFFFF" text-anchor="middle">LanguagePal</text>
</svg>